<?xml version="1.0" encoding="utf-8"?>
<!-- Generator: Adobe Illustrator 22.0.0, SVG Export Plug-In . SVG Version: 6.00 Build 0)  -->
<svg version="1.1" id="Layer_1" xmlns="http://www.w3.org/2000/svg" xmlns:xlink="http://www.w3.org/1999/xlink" x="0px" y="0px"
	 viewBox="0 0 700 414" style="enable-background:new 0 0 700 414;" xml:space="preserve">
<style type="text/css">
	.st0{fill:#008CFF;}
	.st1{fill:#0CBFE8;}
	.st2{fill:#141414;}
</style>
<title>RIF_Logo_Phase1_RGB_NoTagline</title>
<g>
	<g>
		<g>
			<path d="M242.7,273.8V157.3l23.9-2.9l3.7,18.3c7.8-12.5,19.2-18.8,34-18.8c3.1,0,5.7,0.1,7.6,0.4l-0.4,23.8
				c-2.9-0.4-5.9-0.7-9-0.7c-10.5,0-18.3,2.8-23.5,8.4c-5.2,5.6-7.8,13.3-7.8,23.3v64.8h-28.5V273.8z"/>
			<path class="st0" d="M80.4,137.3V26.5c0,0-35.9,17.9-35.9,55.9S80.4,137.3,80.4,137.3"/>
			<path class="st1" d="M80.4,26.5c0,0,35.9,17.9,35.9,55.9s-35.9,55-35.9,55V26.5z"/>
			<path class="st0" d="M164.1,189.4l49.3-28c0,0-17-11.4-33.9-1.8C162.6,169.2,164.1,189.4,164.1,189.4"/>
			<path class="st1" d="M213.4,161.4c0,0,1.1,20.5-15.8,30.1s-33.5-2-33.5-2L213.4,161.4z"/>
			<path d="M215.7,157c-0.9-0.5-21.7-11.4-39.2-1.3c-14.1,8.1-16.9,24.4-17.4,31.2l-6.5,3.7c-3.2-3.2-7.7-5.2-12.6-5.2
				c-4.8,0-9.2,1.9-12.4,5l-29.8-17.2c0.3-1.4,0.5-2.8,0.5-4.3c0-8.2-5.5-15.1-13-17.3V141c8.7-5.6,36.2-25.8,36.2-58.1
				c0-37.3-37-60.6-38.6-61.6l-2.6-1.6l-2.6,1.6c-1.6,1-38.6,24.3-38.6,61.6c0,32.2,27.5,52.5,36.2,58.1v10.6
				c-7.5,2.2-13,9.1-13,17.3c0,1.5,0.2,2.9,0.5,4.3L33,190.4c-3.2-3.1-7.6-5-12.4-5c-9.9,0-18,8.1-18,18c0,8.2,5.5,15.1,13,17.3
				v35.7c-7.5,2.2-13,9.1-13,17.3c0,9.9,8.1,18,18,18c5.3,0,10-2.3,13.3-5.9l28.9,16.7c-0.3,1.4-0.5,2.8-0.5,4.3c0,9.9,8.1,18,18,18
				s18-8.1,18-18c0-1.5-0.2-2.9-0.5-4.3l28.9-16.7c3.3,3.6,8,5.9,13.3,5.9c9.9,0,18-8.1,18-18c0-8.2-5.5-15.1-13-17.3v-35.7
				c7.5-2.2,13-9.1,13-17.3c0-1.4-0.2-2.9-0.5-4.2l6.5-3.7c3.8,1.8,11.3,4.7,19.8,4.7c5.2,0,10.7-1.1,16.1-4.2
				c17.5-10.1,18.5-33.6,18.5-34.6l0.1-3.1L215.7,157z M145,209.8c-1.4,1.1-3.1,1.7-5,1.7c-1,0-1.9-0.2-2.8-0.5
				c-0.8-0.3-1.5-0.7-2.1-1.2c-1.6-1.2-2.7-3.1-3-5.2c0-0.4-0.1-0.8-0.1-1.2c0-0.3,0-0.7,0.1-1c0.4-2.9,2.3-5.4,5-6.5
				c0.9-0.4,1.9-0.6,2.9-0.6c1.1,0,2.2,0.2,3.1,0.6c2.9,1.2,4.9,4.1,4.9,7.4c0,0.5,0,0.9-0.1,1.3C147.6,206.8,146.6,208.5,145,209.8
				 M148.1,273.7c0,4.4-3.6,8-8,8c-1.5,0-3-0.4-4.2-1.2c-2.3-1.4-3.8-3.9-3.8-6.8c0-0.1,0-0.1,0-0.2l0,0c0-0.9,0.2-1.7,0.5-2.5
				c0.5-1.4,1.4-2.7,2.6-3.6c1-0.8,2.2-1.4,3.6-1.6c0.4-0.1,0.9-0.1,1.4-0.1c1.9,0,3.6,0.7,5,1.7
				C146.9,268.9,148.1,271.2,148.1,273.7 M135.1,256.5c-2.4,0.7-4.7,1.9-6.6,3.5L98,242.4l0,0c0.2-1.1,0.3-2.3,0.3-3.5
				c0-1.7-0.3-3.4-0.7-5l30-17.3c2.1,2,4.6,3.5,7.4,4.3v35.6H135.1z M80.4,314.8c-4,0-7.3-2.9-7.9-6.8c-0.1-0.4-0.1-0.8-0.1-1.2
				c0-3.4,2.1-6.2,5-7.4c0.9-0.4,2-0.6,3-0.6c1.1,0,2.1,0.2,3,0.6c2.9,1.2,5,4.1,5,7.4c0,0.4,0,0.8-0.1,1.2
				C87.7,311.9,84.4,314.8,80.4,314.8 M62.8,242.4L32.3,260c-1.9-1.6-4.1-2.8-6.6-3.5v-35.7c2.9-0.8,5.4-2.3,7.5-4.3l30,17.3
				c-0.5,1.6-0.7,3.3-0.7,5.1C62.4,240,62.5,241.2,62.8,242.4L62.8,242.4z M28.8,273.7c0,2.9-1.5,5.4-3.8,6.8
				c-1.2,0.8-2.7,1.2-4.2,1.2c-4.4,0-8-3.6-8-8c0-2.5,1.2-4.8,3-6.3c1.4-1.1,3.1-1.7,5-1.7c0.5,0,0.9,0,1.4,0.1
				c1.3,0.2,2.5,0.8,3.6,1.6c1.2,0.9,2.1,2.2,2.6,3.6c0.3,0.8,0.5,1.6,0.5,2.5C28.8,273.6,28.8,273.7,28.8,273.7 M12.7,203.5
				c0-4.4,3.6-8,8-8c1,0,2,0.2,2.9,0.6c2.6,1,4.6,3.4,5,6.3c0.1,0.4,0.1,0.8,0.1,1.2s0,0.8-0.1,1.2c-0.3,2.1-1.4,3.9-3,5.2
				c-0.6,0.5-1.3,0.9-2,1.1c-0.9,0.4-1.9,0.6-3,0.6c-1.9,0-3.6-0.6-5-1.7C13.9,208.3,12.7,206,12.7,203.5 M75.4,162.7
				c1.4-1.1,3.1-1.7,5-1.7s3.6,0.7,5,1.7c1.6,1.3,2.7,3.1,3,5.1c0.1,0.4,0.1,0.8,0.1,1.2c0,2.5-1.2,4.8-3.1,6.3
				c-0.6,0.5-1.3,0.9-2,1.1c-0.9,0.4-1.9,0.6-3,0.6c-1,0-2-0.2-3-0.6c-0.7-0.3-1.4-0.7-2-1.1c-1.9-1.5-3.1-3.7-3.1-6.3
				c0-0.4,0-0.8,0.1-1.2C72.7,165.8,73.8,164,75.4,162.7 M88.4,239.1c-0.1,2.4-1.3,4.6-3,6c-0.4,0.3-0.8,0.5-1.2,0.8
				c-1.1,0.6-2.4,1-3.8,1c-1.3,0-2.6-0.3-3.7-0.9c-0.4-0.2-0.9-0.5-1.2-0.8c-1.8-1.4-3-3.6-3-6.1c0-0.1,0-0.2,0-0.2
				c0-0.7,0.1-1.4,0.3-2.1c0.4-1.7,1.4-3.2,2.8-4.2c0.9-0.7,1.9-1.2,3-1.5c0.6-0.2,1.3-0.3,2-0.3s1.4,0.1,2.1,0.3
				c1.1,0.3,2,0.8,2.9,1.4c1.3,1.1,2.3,2.5,2.7,4.1c0.2,0.7,0.3,1.4,0.3,2.2C88.4,238.9,88.4,239,88.4,239.1L88.4,239.1z
				 M122.6,199.1c-0.3,1.4-0.5,2.8-0.5,4.3s0.2,3,0.6,4.5l-30.3,17.5c-2-1.8-4.3-3.1-7-3.9v-35.2c2.9-0.8,5.4-2.3,7.5-4.3
				L122.6,199.1z M49.1,83.1c0-26.4,23.3-45.6,31.2-51.3c8,5.7,31.2,24.8,31.2,51.3c0,22.1-16.4,38.2-26.3,45.8V87.1
				c0-2.8-2.2-5-5-5c-2.7,0-5,2.2-5,5V129C65.5,121.3,49.1,105.3,49.1,83.1 M67.9,182c2.1,2,4.6,3.5,7.5,4.3v35.2
				c-2.6,0.7-4.9,2-6.9,3.8l-30.3-17.5c0.3-1.4,0.5-2.8,0.5-4.3s-0.2-2.9-0.5-4.3L67.9,182z M38.4,276.9c0.2-1,0.3-2.1,0.3-3.1
				c0-1.9-0.3-3.8-0.9-5.5l29.6-17c2.2,2.3,4.9,4,8,4.9v33.4c-2.9,0.8-5.4,2.3-7.5,4.4L38.4,276.9z M92.9,293.9
				c-2.1-2-4.6-3.5-7.5-4.4v-33.4c3.1-0.9,5.9-2.6,8-4.9l29.5,17c-0.6,1.7-0.9,3.6-0.9,5.5c0,1.1,0.1,2.1,0.3,3.1L92.9,293.9z
				 M194.9,187.5c-6.6,3.8-14.1,3.1-19.7,1.6l9.9-5.7c2.4-1.4,3.2-4.4,1.8-6.8c-1.4-2.4-4.4-3.2-6.8-1.8l-9.9,5.7
				c1.5-5.6,4.6-12.4,11.2-16.2c9.5-5.5,21.2-2,26.6,0.1C207.3,170.1,204.5,182,194.9,187.5"/>
			<path d="M332.5,127.6c0-9.7,5.4-14.6,16.2-14.6c10.8,0,16.2,4.9,16.2,14.6c0,4.6-1.4,8.2-4.1,10.8c-2.7,2.6-6.8,3.9-12.2,3.9
				C337.9,142.3,332.5,137.4,332.5,127.6z M363.6,273.8h-29.8V155.9h29.8V273.8z"/>
			<path d="M455.4,178.3h-25.8v95.5h-29.8v-95.5h-16.4v-14.4l16.4-8v-8c0-12.5,3.1-21.6,9.2-27.3c6.1-5.7,16-8.6,29.5-8.6
				c10.3,0,19.5,1.5,27.5,4.6l-7.6,21.9c-6-1.9-11.5-2.8-16.6-2.8c-4.2,0-7.3,1.3-9.2,3.8c-1.9,2.5-2.8,5.7-2.8,9.6v6.8h25.8v22.4
				H455.4z"/>
		</g>
	</g>
	<g>
		<g>
			<g>
				<path class="st2" d="M243.8,321.8v13.3h-4v-34h15c7.2,0,12.3,4.3,12.3,10.5c0,4.6-3.5,8.6-8.4,9.6l8.7,13.9h-4.7l-8-13.3H243.8z
					 M243.8,304.7v13.5h10.7c5,0,8.6-2.7,8.6-6.7c0-4.3-3.6-6.9-8.6-6.9h-10.7V304.7z"/>
				<path class="st2" d="M272.7,324.2h4c0,5,4.3,8.6,10.4,8.6c5.6,0,9-2.9,9-6.5c0-9.3-22.9-3.1-22.9-15.9c0-6,5.2-10.5,12.8-10.5
					c7.8,0,13.4,4.8,13.4,11.5h-3.9c0-4.6-4-8-9.5-8c-5.4,0-8.8,2.7-8.8,6.3c0,9.1,22.9,3,22.9,15.9c0,6.1-5.1,10.7-13.1,10.7
					C278.6,336.3,272.7,331.2,272.7,324.2z"/>
				<path class="st2" d="M310.9,335.1h-4v-34h4V316l14.4-14.9h5.3l-16.1,16.4l16.6,17.5h-5.3l-14.9-16.1V335.1z"/>
				<path class="st2" d="M349.6,335.1v-34h4v34H349.6z"/>
				<path class="st2" d="M383.1,320.6v14.6h-3.7v-14.6c0-4.3-2.5-7.4-6.7-7.4s-8,3.2-8,7.7v14.2H361v-24.3h3.7v3.4
					c1.7-2.7,5-4.4,8.3-4.4C379.3,309.8,383.1,314.4,383.1,320.6z"/>
				<path class="st2" d="M401.8,302.6c-0.8-0.2-1.7-0.4-2.7-0.4c-2.1,0-3.6,1.5-3.6,4v4.7h6.2v3h-6.2v21.3h-3.7v-21.3h-4v-3h4v-5.1
					c0-4.2,2.6-7,6.4-7c1.3,0,2.6,0.2,3.7,0.6L401.8,302.6L401.8,302.6z"/>
				<path class="st2" d="M420.1,310.6v3.4c-1.3-0.6-2.7-0.8-3.6-0.8c-3.8,0-6.3,3.4-6.3,8.3v13.6h-3.7v-24.3h3.6v3.4
					c1.4-2.7,3.8-4.2,6.7-4.2C417.8,309.9,419,310.2,420.1,310.6z"/>
				<path class="st2" d="M444.1,310.8h3.7v24.3h-3.7v-4.3c-2.1,3.2-5.6,5.3-9.8,5.3c-7.3,0-12.5-5.5-12.5-13.1s5.3-13.2,12.5-13.2
					c4.2,0,7.7,2,9.8,5.3V310.8z M444,323c0-5.7-4-9.8-9.3-9.8c-5.4,0-9.3,4.1-9.3,9.8c0,5.6,3.9,9.8,9.3,9.8S444,328.6,444,323z"/>
				<path class="st2" d="M453.2,327h3.6c0,3.4,3,5.8,7.2,5.8c3.8,0,6.5-1.8,6.5-4.3c0-6.1-16.7-1.6-16.7-11.3c0-4.2,4.1-7.4,9.4-7.4
					c6,0,10.4,3.5,10.4,8.2H470c0-2.8-2.9-4.8-6.9-4.8c-3.1,0-5.7,1.7-5.7,4.1c0,6,16.7,2,16.7,10.9c0,4.5-4.2,7.9-10,7.9
					C457.7,336.1,453.2,332.2,453.2,327z"/>
				<path class="st2" d="M480.1,313.8h-4v-3h4.1l0.5-5.7h3v5.7h6.3v3h-6.3V329c0,2.4,1.4,4,3.8,4c0.8,0,2-0.2,2.9-0.5v3
					c-1.1,0.3-2.7,0.6-3.9,0.6c-4,0-6.5-2.8-6.5-7v-15.3H480.1z"/>
				<path class="st2" d="M509.4,310.6v3.4c-1.3-0.6-2.7-0.8-3.6-0.8c-3.8,0-6.3,3.4-6.3,8.3v13.6h-3.7v-24.3h3.6v3.4
					c1.4-2.7,3.8-4.2,6.7-4.2C507.1,309.9,508.2,310.2,509.4,310.6z"/>
				<path class="st2" d="M513.3,325.4v-14.6h3.7v14.6c0,4.3,2.5,7.4,6.8,7.4c4.2,0,7.9-3.3,7.9-7.7v-14.3h3.7v24.3h-3.7v-3.4
					c-1.6,2.7-5,4.4-8.3,4.4C517.1,336.1,513.3,331.6,513.3,325.4z"/>
				<path class="st2" d="M561.5,319.2c-0.9-3.6-4.3-6.2-8.2-6.2c-5.1,0-9,4.2-9,9.9c0,5.7,3.9,9.9,9,9.9c4,0,7.2-2.6,8.2-6l3.6,0.5
					c-1.1,5.1-6.1,8.8-11.8,8.8c-7.4,0-12.7-5.5-12.7-13.1s5.4-13.2,12.7-13.2c5.9,0,10.8,3.8,11.8,8.9L561.5,319.2z"/>
				<path class="st2" d="M572.5,313.8h-4v-3h4.1l0.5-5.7h3v5.7h6.3v3h-6.3V329c0,2.4,1.4,4,3.8,4c0.8,0,2-0.2,2.9-0.5v3
					c-1.1,0.3-2.7,0.6-3.9,0.6c-4,0-6.5-2.8-6.5-7v-15.3H572.5z"/>
				<path class="st2" d="M587.7,325.4v-14.6h3.7v14.6c0,4.3,2.5,7.4,6.8,7.4c4.2,0,7.9-3.3,7.9-7.7v-14.3h3.7v24.3H606v-3.4
					c-1.6,2.7-5,4.4-8.3,4.4C591.5,336.1,587.7,331.6,587.7,325.4z"/>
				<path class="st2" d="M629.9,310.6v3.4c-1.3-0.6-2.7-0.8-3.6-0.8c-3.8,0-6.3,3.4-6.3,8.3v13.6h-3.7v-24.3h3.6v3.4
					c1.4-2.7,3.8-4.2,6.7-4.2C627.7,309.9,628.8,310.2,629.9,310.6z"/>
				<path class="st2" d="M652.8,327.9l3.3,1.2c-1.5,4-6.4,7-11.4,7c-7.6,0-13.1-5.6-13.1-13.4c0-7.4,5.4-12.9,12.9-12.9
					c7.4,0,12.8,5.4,12.8,12.9c0,0.4,0,0.9,0,1.4h-21.9c0.6,5.1,4.3,8.6,9.1,8.6C648.1,332.8,651.6,330.7,652.8,327.9z M653.4,321
					c-0.7-4.6-4.2-7.8-9.1-7.8c-4.7,0-8.2,3.2-8.9,7.8H653.4z"/>
				<path class="st2" d="M243.8,375.9h14.6v3.3h-14.6v13.9h-4v-34h21.4v3.6h-17.4V375.9z"/>
				<path class="st2" d="M279.7,368.6v3.4c-1.3-0.6-2.7-0.8-3.6-0.8c-3.8,0-6.3,3.4-6.3,8.3v13.6h-3.7v-24.3h3.6v3.4
					c1.4-2.7,3.8-4.2,6.7-4.2C277.4,367.9,278.6,368.2,279.7,368.6z"/>
				<path class="st2" d="M303.6,368.8h3.7v24.3h-3.7v-4.3c-2.1,3.2-5.6,5.3-9.8,5.3c-7.3,0-12.5-5.5-12.5-13.1s5.3-13.2,12.5-13.2
					c4.2,0,7.7,2,9.8,5.3V368.8z M303.6,381c0-5.7-4-9.8-9.3-9.8c-5.4,0-9.3,4.1-9.3,9.8c0,5.6,3.9,9.8,9.3,9.8
					C299.6,390.8,303.6,386.6,303.6,381z"/>
				<path class="st2" d="M317.6,393.1h-3.7v-24.3h3.6v3c1.5-2.5,4.1-4,7.2-4c4,0,7.3,2,8.6,5.1c1.5-3.1,4.6-5.1,8.4-5.1
					c5.7,0,9.7,4.4,9.7,10.7v14.6h-3.7v-14.6c0-4.3-2.7-7.3-6.5-7.3c-4,0-6.8,3-6.8,7.3v14.6h-3.7v-14.6c0-4.4-2.6-7.3-6.5-7.3
					c-4,0-6.8,2.9-6.8,7.3v14.6H317.6z"/>
				<path class="st2" d="M377.6,385.9l3.3,1.2c-1.5,4-6.4,7-11.4,7c-7.6,0-13.1-5.6-13.1-13.4c0-7.4,5.4-12.9,12.9-12.9
					c7.4,0,12.8,5.4,12.8,12.9c0,0.4,0,0.9,0,1.4h-21.9c0.6,5.1,4.3,8.6,9.1,8.6C372.9,390.8,376.4,388.6,377.6,385.9z M378.2,379
					c-0.7-4.6-4.2-7.8-9.1-7.8c-4.7,0-8.2,3.2-8.9,7.8H378.2z"/>
				<path class="st2" d="M404.7,373.1l-5.8,20.1h-5l-8.2-24.3h3.9l6.9,20.7l6.1-20.7h4.3l6.3,20.7l6.8-20.7h3.9l-8.3,24.3h-5
					L404.7,373.1z"/>
				<path class="st2" d="M440.3,394.1c-7.6,0-13-5.4-13-13.1s5.4-13.2,13-13.2s13,5.4,13,13.2C453.3,388.6,447.9,394.1,440.3,394.1z
					 M440.3,371.2c-5.4,0-9.3,4.1-9.3,9.8c0,5.6,3.9,9.8,9.3,9.8s9.3-4.1,9.3-9.8C449.6,375.3,445.7,371.2,440.3,371.2z"/>
				<path class="st2" d="M472.2,368.6v3.4c-1.3-0.6-2.7-0.8-3.6-0.8c-3.8,0-6.3,3.4-6.3,8.3v13.6h-3.7v-24.3h3.6v3.4
					c1.4-2.7,3.8-4.2,6.7-4.2C469.9,367.9,471,368.2,472.2,368.6z"/>
				<path class="st2" d="M480.2,393.1h-3.7v-35.4h3.7v20.9l10.6-9.8h5l-12.2,11.3l12.7,13h-5l-11.1-11.5L480.2,393.1L480.2,393.1z"
					/>
			</g>
		</g>
	</g>
</g>
</svg>
